HIERARCHY
ROOT joint_Root
{
	OFFSET 0.0 0.0 0.0
	CHANNELS 6 Xposition Yposition Zposition Zrotation Xrotation Yrotation 
	JOINT Hips
	{
		OFFSET -17.1583 93.1646 452.98
		CHANNELS 6 Xposition Yposition Zposition Zrotation Xrotation Yrotation 
		JOINT Spine
		{
			OFFSET 15.7357 0.0 0.0
			CHANNELS 6 Xposition Yposition Zposition Zrotation Xrotation Yrotation 
			JOINT Chest
			{
				OFFSET 8.98455 -0.406207 0.0
				CHANNELS 6 Xposition Yposition Zposition Zrotation Xrotation Yrotation 
				JOINT Neck
				{
					OFFSET 16.3773 0.0 0.0
					CHANNELS 6 Xposition Yposition Zposition Zrotation Xrotation Yrotation 
					JOINT Head
					{
						OFFSET 6.45672 0.0 0.0
						CHANNELS 6 Xposition Yposition Zposition Zrotation Xrotation Yrotation 
						End Site
						{
							OFFSET 0.0 0.0 0.0
						}
					}
				}
				JOINT Shoulder_L
				{
					OFFSET 12.9942 -0.242716 4.98039
					CHANNELS 6 Xposition Yposition Zposition Zrotation Xrotation Yrotation 
					JOINT UpperArm_L
					{
						OFFSET 5.34809 0.0 0.0
						CHANNELS 6 Xposition Yposition Zposition Zrotation Xrotation Yrotation 
						JOINT LowerArm_L
						{
							OFFSET 24.3286 1.87007e-05 0.0
							CHANNELS 6 Xposition Yposition Zposition Zrotation Xrotation Yrotation 
							JOINT Hand_L
							{
								OFFSET 22.2916 0.0 0.0
								CHANNELS 6 Xposition Yposition Zposition Zrotation Xrotation Yrotation 
								End Site
								{
									OFFSET 0.0 0.0 0.0
								}
							}
						}
					}
				}
				JOINT Shoulder_R
				{
					OFFSET 12.9945 -0.242716 -4.98039
					CHANNELS 6 Xposition Yposition Zposition Zrotation Xrotation Yrotation 
					JOINT UpperArm_R
					{
						OFFSET -5.34813 0.0 0.0
						CHANNELS 6 Xposition Yposition Zposition Zrotation Xrotation Yrotation 
						JOINT LowerArm_R
						{
							OFFSET -24.3289 0.000322201 0.0
							CHANNELS 6 Xposition Yposition Zposition Zrotation Xrotation Yrotation 
							JOINT Hand_R
							{
								OFFSET -22.2915 -0.000108084 0.0
								CHANNELS 6 Xposition Yposition Zposition Zrotation Xrotation Yrotation 
								End Site
								{
									OFFSET 0.0 0.0 0.0
								}
							}
						}
					}
				}
			}
		}
		JOINT UpperLeg_L
		{
			OFFSET -2.19248 -6.46944 0.0
			CHANNELS 6 Xposition Yposition Zposition Zrotation Xrotation Yrotation 
			JOINT LowerLeg_L
			{
				OFFSET 39.0811 0.0 -1.23785e-05
				CHANNELS 6 Xposition Yposition Zposition Zrotation Xrotation Yrotation 
				JOINT Foot_L
				{
					OFFSET 40.9854 0.0 -1.26872e-05
					CHANNELS 6 Xposition Yposition Zposition Zrotation Xrotation Yrotation 
					JOINT Toes_L
					{
						OFFSET 11.7543 0.0 0.0
						CHANNELS 6 Xposition Yposition Zposition Zrotation Xrotation Yrotation 
						End Site
						{
							OFFSET 0.0 0.0 0.0
						}
					}
				}
			}
		}
		JOINT UpperLeg_R
		{
			OFFSET -2.19251 6.46944 0.0
			CHANNELS 6 Xposition Yposition Zposition Zrotation Xrotation Yrotation 
			JOINT LowerLeg_R
			{
				OFFSET -39.0811 -0.00228153 -0.0401928
				CHANNELS 6 Xposition Yposition Zposition Zrotation Xrotation Yrotation 
				JOINT Foot_R
				{
					OFFSET -40.9854 0.0 0.0
					CHANNELS 6 Xposition Yposition Zposition Zrotation Xrotation Yrotation 
					JOINT Toes_R
					{
						OFFSET -11.7543 0.0 0.0
						CHANNELS 6 Xposition Yposition Zposition Zrotation Xrotation Yrotation 
						End Site
						{
							OFFSET 0.0 0.0 0.0
						}
					}
				}
			}
		}
	}
}
MOTION
Frames:	4
Frame Time:	0.0333333
0.000000 0.000000 0.000000 0.000000 0.000000 -0.000000 0.360998 92.909600 1.032440 87.097000 -2.028670 0.124579 15.735700 0.000005 -0.000001 69.345600 87.708900 -67.694300 8.984550 -0.406207 -0.000000 -3.451350 -1.777010 3.250140 16.377300 -0.000001 -0.000001 4.077350 1.793540 -3.348500 6.456720 -0.000001 -0.000000 2.793320 0.679666 -2.046410 12.994200 -0.242716 4.980390 -92.416200 7.100690 -71.153000 5.348090 -0.000007 -0.000001 -73.288200 7.410800 1.589780 24.328600 0.000019 0.000005 10.260500 24.588300 -23.510800 22.291600 -0.000001 0.000005 3.353860 5.021900 6.850170 12.994500 -0.242716 -4.980390 88.600700 4.606770 -73.084200 -5.348130 -0.000001 -0.000004 -71.121000 30.267100 -4.154090 -24.328900 0.000322 -0.000009 2.167360 7.278460 -16.639600 -22.291500 -0.000108 -0.000004 1.635490 5.221670 2.170080 -2.192480 -6.469440 -0.000000 -177.119000 -0.548234 -1.321090 39.081100 -0.000007 -0.000012 0.183251 -0.565288 17.961600 40.985400 -0.000006 -0.000013 3.392450 9.470310 -72.301200 11.754300 -0.000000 0.000003 -0.000624 0.177541 -9.375250 -2.192510 6.469440 -0.000001 -176.180000 3.726770 -177.858000 -39.081100 -0.002282 -0.040193 0.012418 -0.044217 11.606800 -40.985400 0.000008 0.000006 -2.717490 2.586660 -68.412000 -11.754300 -0.000006 -0.000006 -0.010118 0.272187 -5.514910
0.000000 0.000000 0.000000 0.000000 0.000000 -0.000000 0.265231 92.918500 1.000160 87.122900 -2.009410 0.084204 15.735700 0.000005 -0.000001 69.136200 87.707500 -67.445900 8.984550 -0.406207 -0.000000 -3.453740 -1.797500 3.327690 16.377300 -0.000001 -0.000001 3.930580 1.779810 -3.444670 6.456720 -0.000001 -0.000000 2.654020 0.604223 -2.248210 12.994200 -0.242716 4.980390 -92.447700 7.180200 -71.119500 5.348090 -0.000007 -0.000001 -72.591000 5.767770 1.122190 24.328600 0.000019 0.000005 10.178000 24.426100 -23.468300 22.291600 -0.000001 0.000005 3.794720 5.013790 7.024560 12.994500 -0.242716 -4.980390 88.596000 4.606910 -73.030600 -5.348130 -0.000001 -0.000004 -71.064900 30.196700 -4.204870 -24.328900 0.000322 -0.000009 2.166210 7.282640 -16.622300 -22.291500 -0.000108 -0.000004 1.606190 5.223680 2.118380 -2.192480 -6.469440 -0.000000 -177.049000 -0.611242 -1.351170 39.081100 -0.000007 -0.000012 0.180169 -0.557943 17.896500 40.985400 -0.000006 -0.000013 3.323470 9.597560 -72.271000 11.754300 -0.000000 0.000003 -0.000625 0.177554 -9.374700 -2.192510 6.469440 -0.000001 -176.115000 3.713120 -177.896000 -39.081100 -0.002282 -0.040193 0.012777 -0.046203 11.548500 -40.985400 0.000008 0.000006 -2.604830 2.527750 -68.396800 -11.754300 -0.000006 -0.000006 -0.010350 0.273902 -5.444780
0.000000 0.000000 0.000000 0.000000 0.000000 -0.000000 0.150904 92.921100 0.940434 87.151600 -2.025940 0.009080 15.735700 0.000005 -0.000001 69.014700 87.718600 -67.289700 8.984550 -0.406207 -0.000000 -3.477230 -1.802360 3.396640 16.377300 -0.000001 -0.000001 3.805260 1.749190 -3.571940 6.456720 -0.000001 -0.000000 2.437310 0.561244 -2.472310 12.994200 -0.242716 4.980390 -92.474400 7.226700 -71.041800 5.348090 -0.000007 -0.000001 -71.816600 4.057890 0.936278 24.328600 0.000019 0.000005 10.731700 24.290400 -24.736500 22.291600 -0.000001 0.000005 4.442100 4.996800 7.387320 12.994500 -0.242716 -4.980390 88.586000 4.632250 -73.004400 -5.348130 -0.000001 -0.000004 -70.981800 30.178200 -4.213030 -24.328900 0.000322 -0.000009 2.152160 7.199450 -16.699700 -22.291500 -0.000108 -0.000004 1.610970 5.224610 2.094450 -2.192480 -6.469440 -0.000000 -176.993000 -0.683830 -1.474440 39.081100 -0.000007 -0.000012 0.179011 -0.554045 17.905900 40.985400 -0.000006 -0.000013 3.246330 9.650970 -72.209100 11.754300 -0.000000 0.000003 -0.000531 0.176124 -9.432800 -2.192510 6.469440 -0.000001 -176.040000 3.666740 -178.024000 -39.081100 -0.002282 -0.040193 0.014278 -0.053380 11.583800 -40.985400 0.000008 0.000006 -2.430750 2.460230 -68.416700 -11.754300 -0.000006 -0.000006 -0.010379 0.274118 -5.435910
0.000000 0.000000 0.000000 0.000000 0.000000 -0.000000 0.019169 92.939100 0.888093 87.173500 -1.987920 -0.087018 15.735700 0.000005 -0.000001 68.619000 87.734400 -66.860100 8.984550 -0.406207 -0.000000 -3.517060 -1.824150 3.463060 16.377300 -0.000001 -0.000001 3.657860 1.737420 -3.698150 6.456720 -0.000001 -0.000000 2.291940 0.469618 -2.778610 12.994200 -0.242716 4.980390 -92.504100 7.280080 -70.959800 5.348090 -0.000007 -0.000001 -70.931800 2.308050 0.944444 24.328600 0.000019 0.000005 12.161500 24.612200 -27.358900 22.291600 -0.000001 0.000005 5.103890 4.991520 7.499330 12.994500 -0.242716 -4.980390 88.582800 4.634580 -72.976700 -5.348130 -0.000001 -0.000004 -70.935100 30.120600 -4.244270 -24.328900 0.000322 -0.000009 2.175150 7.256050 -16.744600 -22.291500 -0.000108 -0.000004 1.593850 5.222290 2.154150 -2.192480 -6.469440 -0.000000 -176.909000 -0.650122 -1.556090 39.081100 -0.000007 -0.000012 0.176283 -0.549351 17.791400 40.985400 -0.000006 -0.000013 3.137260 9.711590 -72.131800 11.754300 -0.000000 0.000003 -0.000452 0.174919 -9.481760 -2.192510 6.469440 -0.000001 -175.963000 3.634140 -178.092000 -39.081100 -0.002282 -0.040193 0.013056 -0.048029 11.440600 -40.985400 0.000008 0.000006 -2.423920 2.408460 -68.287500 -11.754300 -0.000006 -0.000006 -0.010149 0.272418 -5.505460
